<?xml version="1.0" standalone="no"?>
<!DOCTYPE svg PUBLIC "-//W3C//DTD SVG 20010904//EN"
 "http://www.w3.org/TR/2001/REC-SVG-20010904/DTD/svg10.dtd">
<svg version="1.0" xmlns="http://www.w3.org/2000/svg"
 width="340.000000pt" height="340.000000pt" viewBox="0 0 340.000000 340.000000"
 preserveAspectRatio="xMidYMid meet">
<metadata>
Created by potrace 1.11, written by Peter Selinger 2001-2013
</metadata>
<g transform="translate(0.000000,340.000000) scale(0.100000,-0.100000)"
fill="#000000" stroke="none">
<path d="M1308 2466 c-68 -25 -126 -66 -160 -113 -51 -71 -63 -108 -63 -198 0
-72 3 -86 35 -144 45 -83 128 -146 215 -164 l20 -4 -20 -7 c-82 -28 -149 -73
-184 -120 -54 -73 -66 -110 -66 -201 0 -72 3 -86 35 -144 38 -70 107 -130 175
-151 22 -7 47 -15 55 -17 8 -3 -6 -11 -32 -17 -90 -24 -164 -87 -206 -176 -55
-115 -28 -260 65 -355 91 -91 241 -118 354 -63 71 36 125 89 158 158 l26 55 5
340 c3 187 7 329 8 314 3 -39 48 -122 90 -164 90 -91 240 -118 353 -63 119 59
183 159 184 288 0 88 -30 161 -92 224 -41 42 -124 86 -161 86 -13 0 -20 4 -17
10 3 6 14 10 23 10 32 0 117 47 156 86 123 123 123 325 0 448 -22 21 -64 51
-94 65 l-55 26 -385 2 c-300 2 -393 0 -422 -11z m650 -640 c-110 -30 -201
-123 -227 -233 -7 -28 -9 -2 -10 105 l-1 142 143 -1 c133 0 139 -1 95 -13z"/>
</g>
</svg>
